HIERARCHY
ROOT Hips
{
	OFFSET 0.000000 0.000000 0.000000
	CHANNELS 6 Xposition Yposition Zposition Xrotation Yrotation Zrotation
	JOINT LeftUpLeg_virtual
	{
		OFFSET 0.000000 0.000000 0.000000
		CHANNELS 3 Xrotation Yrotation Zrotation
		JOINT LeftUpLeg
		{
			OFFSET 13.026900 -6.336304 -1.092800
			CHANNELS 3 Xrotation Yrotation Zrotation
			JOINT LeftLeg
			{
				OFFSET 0.524474 -46.096886 9.782700
				CHANNELS 3 Xrotation Yrotation Zrotation
				JOINT LeftFoot
				{
					OFFSET -0.524474 -53.427422 -12.948200
					CHANNELS 3 Xrotation Yrotation Zrotation
					JOINT LeftToeBase
					{
						OFFSET 0.192200 -14.009700 16.364100
						CHANNELS 3 Xrotation Yrotation Zrotation
						JOINT LeftToe_End
						{
							OFFSET -1.784700 -0.561700 9.474800
							CHANNELS 3 Xrotation Yrotation Zrotation
							End Site
							{
								OFFSET 0 0 0
							}
						}
					}
				}
			}
		}
	}
	JOINT RightUpLeg_virtual
	{
		OFFSET 0.000000 0.000000 0.000000
		CHANNELS 3 Xrotation Yrotation Zrotation
		JOINT RightUpLeg
		{
			OFFSET -12.883000 -6.336304 -1.092800
			CHANNELS 3 Xrotation Yrotation Zrotation
			JOINT RightLeg
			{
				OFFSET -0.524587 -46.096825 9.782800
				CHANNELS 3 Xrotation Yrotation Zrotation
				JOINT RightFoot
				{
					OFFSET 0.524587 -53.427383 -12.948300
					CHANNELS 3 Xrotation Yrotation Zrotation
					JOINT RightToeBase
					{
						OFFSET -0.192200 -14.009700 16.364100
						CHANNELS 3 Xrotation Yrotation Zrotation
						JOINT RightToe_End
						{
							OFFSET 1.784700 -0.561700 9.474800
							CHANNELS 3 Xrotation Yrotation Zrotation
							End Site
							{
								OFFSET 0 0 0
							}
						}
					}
				}
			}
		}
	}
	JOINT Spine_virtual
	{
		OFFSET 0.000000 0.000000 0.000000
		CHANNELS 3 Xrotation Yrotation Zrotation
		JOINT Spine
		{
			OFFSET 0.072000 7.257294 -0.789700
			CHANNELS 3 Xrotation Yrotation Zrotation
			JOINT Spine1
			{
				OFFSET 0.000000 12.508769 -0.658067
				CHANNELS 3 Xrotation Yrotation Zrotation
				JOINT Spine1_split
				{
					OFFSET 0.000000 12.508769 -0.658067
					CHANNELS 3 Xrotation Yrotation Zrotation
					JOINT Spine2
					{
						OFFSET 0.000000 12.508769 -0.658067
						CHANNELS 3 Xrotation Yrotation Zrotation
						JOINT Neck_virtual
						{
							OFFSET 0.000000 0.000000 0.000000
							CHANNELS 3 Xrotation Yrotation Zrotation
							JOINT Neck
							{
								OFFSET 0.000000 14.033295 7.520400
								CHANNELS 3 Xrotation Yrotation Zrotation
								JOINT Head
								{
									OFFSET 0.000000 8.198502 5.703100
									CHANNELS 3 Xrotation Yrotation Zrotation
									JOINT HeadTop_End
									{
										OFFSET 0.000000 17.760803 13.332701
										CHANNELS 3 Xrotation Yrotation Zrotation
										End Site
										{
											OFFSET 0 0 0
										}
									}
								}
							}
						}
						JOINT LeftShoulder_virtual
						{
							OFFSET 0.000000 0.000000 0.000000
							CHANNELS 3 Xrotation Yrotation Zrotation
							JOINT LeftShoulder
							{
								OFFSET 6.292450 5.785301 -0.669000
								CHANNELS 3 Xrotation Yrotation Zrotation
								JOINT LeftShoulder_split
								{
									OFFSET 6.292450 5.785301 -0.669000
									CHANNELS 3 Xrotation Yrotation Zrotation
									JOINT LeftArm
									{
										OFFSET 13.907140 -6.093903 1.965100
										CHANNELS 3 Xrotation Yrotation Zrotation
										JOINT LeftForeArm
										{
											OFFSET 34.140198 0.000000 0.000000
											CHANNELS 3 Xrotation Yrotation Zrotation
											JOINT LeftHand
											{
												OFFSET 40.960209 0.000000 0.000000
												CHANNELS 3 Xrotation Yrotation Zrotation
												End Site
												{
													OFFSET 0 0 0
												}
											}
										}
									}
								}
							}
						}
						JOINT RightShoulder_virtual
						{
							OFFSET 0.000000 0.000000 0.000000
							CHANNELS 3 Xrotation Yrotation Zrotation
							JOINT RightShoulder
							{
								OFFSET -6.292450 5.785301 -0.669000
								CHANNELS 3 Xrotation Yrotation Zrotation
								JOINT RightShoulder_split
								{
									OFFSET -6.292450 5.785301 -0.669000
									CHANNELS 3 Xrotation Yrotation Zrotation
									JOINT RightArm
									{
										OFFSET -13.907140 -6.093903 1.965100
										CHANNELS 3 Xrotation Yrotation Zrotation
										JOINT RightForeArm
										{
											OFFSET -34.140198 0.000000 0.000000
											CHANNELS 3 Xrotation Yrotation Zrotation
											JOINT RightHand
											{
												OFFSET -40.960209 0.000000 0.000000
												CHANNELS 3 Xrotation Yrotation Zrotation
												End Site
												{
													OFFSET 0 0 0
												}
											}
										}
									}
								}
							}
						}
					}
				}
			}
		}
	}
}
MOTION
Frames: 5
Frame Time: 0.03333333
8.243773 90.280075 70.534775 0.000000 0.000000 0.000000 -179.095879 55.732663 172.828347 -55.752119 -24.813468 -1.969401 39.328301 -18.106266 5.437556 -0.434532 -37.349636 -16.626482 4.262717 -8.013618 10.366796 0.000000 0.000000 0.000000 -179.206569 57.837509 173.254278 -25.718434 -29.807024 -24.135081 49.914193 3.640616 -1.190552 -17.136861 -21.030193 14.260556 1.964070 1.100532 -10.088892 0.000000 0.000000 0.000000 176.417093 55.279501 177.715211 17.113631 1.821937 -7.078991 11.848907 12.746309 -13.059893 0.438827 -1.566333 0.468659 0.000000 0.000000 0.000000 12.843666 13.209894 -8.682711 -36.803194 39.210422 53.989565 11.778558 45.186561 17.823939 0.000000 0.000000 0.000000 7.864981 13.134251 -9.417325 -2.015665 48.959315 -4.536597 12.120792 -19.603227 7.072038 -5.834778 27.765305 -76.070979 -55.699544 -53.772881 -46.351573 0.000000 0.000000 0.000000 3.799995 9.041359 -9.792944 -2.338981 17.947242 -0.396502 -38.114901 -21.853837 -6.614581 -50.919743 51.663858 102.957957 -10.912039 9.884074 4.290089 0.000000 0.000000 0.000000 
6.242211 90.664909 71.888931 0.000000 0.000000 0.000000 179.926184 56.891309 173.304398 -54.782919 -22.519767 -0.286862 40.795268 -17.180619 7.219653 -0.628217 -33.242339 -14.856858 2.025879 -7.759419 8.381295 0.000000 0.000000 0.000000 178.402574 58.689364 176.125717 -28.731085 -28.068662 -24.551153 47.932082 3.643754 -0.865440 -15.824247 -21.170950 15.797145 3.748664 1.537678 -11.369164 0.000000 0.000000 0.000000 174.464560 56.527991 -179.510581 17.529867 1.393412 -6.175680 11.641400 11.956300 -13.238108 0.255193 -1.217314 0.379475 0.000000 0.000000 0.000000 13.120239 12.313262 -8.702021 -32.814025 39.176476 46.451843 3.845913 36.702209 22.154098 0.000000 0.000000 0.000000 7.109133 12.541108 -10.022395 0.678543 48.107375 -10.864122 11.296457 -17.732573 10.162003 -10.673750 22.726375 -66.660631 -50.665397 -54.810680 -42.369665 0.000000 0.000000 0.000000 3.791756 8.581597 -9.676645 -3.683036 14.156554 -0.196644 -37.436885 -18.713122 -6.602064 -44.602990 54.079180 98.483760 -13.419300 18.282340 9.128420 0.000000 0.000000 0.000000 
4.716042 91.574348 71.867119 0.000000 0.000000 0.000000 178.583547 58.373740 174.599566 -53.928308 -21.635785 0.611828 43.873426 -17.378686 9.092055 -0.839592 -29.701450 -14.925727 -0.258090 -7.378903 6.993409 0.000000 0.000000 0.000000 176.051869 59.640351 178.812167 -29.793483 -25.210104 -23.013141 45.536215 4.047250 -1.298400 -15.724374 -20.725731 19.528173 5.552705 2.185407 -12.575148 0.000000 0.000000 0.000000 173.269455 58.212767 -177.789838 17.490754 0.686316 -5.557878 11.428436 10.743875 -13.507962 0.080246 -0.955463 0.265393 0.000000 0.000000 0.000000 13.026373 11.255764 -9.096555 -27.517692 38.741373 38.791670 -3.250617 28.228118 25.542693 0.000000 0.000000 0.000000 6.494693 11.481750 -10.664399 2.397642 44.761836 -15.682908 10.870986 -15.513912 12.439189 -14.938136 16.976480 -57.229721 -45.237514 -55.372040 -37.996407 0.000000 0.000000 0.000000 3.731857 7.863950 -9.630546 -5.067331 9.293616 -0.883855 -36.627316 -15.127189 -6.761190 -38.682766 54.283997 93.093682 -17.286143 30.207509 16.040605 0.000000 0.000000 0.000000 
3.760111 92.473549 70.430412 0.000000 0.000000 0.000000 176.921680 59.429367 176.579023 -52.526115 -21.641856 1.106039 47.716770 -17.794822 10.556720 -0.887500 -26.436341 -15.151001 -1.940564 -6.910394 6.422809 0.000000 0.000000 0.000000 174.112546 60.358457 -179.176544 -30.036976 -21.121315 -20.196898 43.651367 4.989814 -2.500567 -14.789340 -20.112047 25.292064 6.516429 2.871385 -13.045624 0.000000 0.000000 0.000000 172.726140 59.634669 -177.105835 17.217153 -0.243775 -5.395147 11.145655 9.337713 -13.566452 0.046144 -0.776756 0.219295 0.000000 0.000000 0.000000 12.724924 10.125742 -9.519046 -21.166063 38.017837 31.516371 -9.659995 20.674506 27.913817 0.000000 0.000000 0.000000 6.057184 10.113683 -10.994243 2.731792 39.390486 -18.223479 11.013384 -13.281405 13.360643 -18.876165 11.490875 -48.511664 -38.618767 -55.672015 -32.726575 0.000000 0.000000 0.000000 3.582628 6.948189 -9.351168 -6.365350 3.869601 -2.399758 -35.764793 -11.423709 -7.125521 -33.861732 53.145190 87.135387 -24.113636 43.967809 26.006584 0.000000 0.000000 0.000000 
3.098809 93.462540 67.699425 0.000000 0.000000 0.000000 174.880286 60.037581 179.037536 -50.297995 -21.826831 1.567531 51.351684 -17.601170 11.114549 -1.520874 -22.944692 -13.919137 -2.143778 -6.334723 6.342282 0.000000 0.000000 0.000000 172.355480 60.850934 -177.472138 -29.424339 -16.525240 -16.474531 41.045148 5.771871 -3.963852 -14.390614 -20.104353 29.950687 6.870005 3.403824 -12.432767 0.000000 0.000000 0.000000 172.396775 60.892421 -177.029446 16.703798 -1.252415 -5.573857 10.807083 7.984641 -13.106092 0.001359 -0.676806 0.160929 0.000000 0.000000 0.000000 12.330806 8.993511 -9.662038 -14.469527 36.618174 25.268937 -15.538233 14.784880 29.093942 0.000000 0.000000 0.000000 5.834784 8.572471 -10.653206 1.957106 32.454481 -18.450347 10.699553 -11.172518 12.976854 -22.911239 6.721865 -40.962755 -29.149202 -55.404418 -25.254454 0.000000 0.000000 0.000000 3.469459 5.862020 -8.696051 -7.416969 -1.554393 -4.437371 -34.630644 -8.162754 -7.163229 -29.700893 51.267400 80.743109 -36.429128 56.892334 41.204076 0.000000 0.000000 0.000000 
